# xmcd CD database file
#
# Track frame offsets:
#	182
#	25565
#	36090
#	49557
#	87265
#	96335
#	110195
#	131927
#	146440
#	160985
#	197127
#	211320
#	243547
#	266592
#	285715
#
# Disc length: 4208 seconds
#
# Revision: 0
# Processed by: cddbd v1.5PL3 Copyright (c) Steve Scherf et al.
# Submitted via: CDex 1.51
#
DISCID=dd106e0f
DTITLE=Kitt, Eartha - "Live on Broadway"
DYEAR=1900
DGENRE=Jazz
TTITLE0=C'est si bon
TTITLE1=I want to be evil
TTITLE2=The day that the circus left town
TTITLE3=The blues
TTITLE4=Guess who I saw today?
TTITLE5=Could I leave you?
TTITLE6=Uska dara
TTITLE7=Old fashinoned Girl
TTITLE8=My discarded men
TTITLE9=All by myself - beautiful at forty
TTITLE10=An englishman needs time
TTITLE11=When the world was young
TTITLE12=Hymn to love
TTITLE13=Ne me quitte pas
TTITLE14=Charleston
EXTD=
EXTT0=
EXTT1=
EXTT2=
EXTT3=
EXTT4=
EXTT5=
EXTT6=
EXTT7=
EXTT8=
EXTT9=
EXTT10=
EXTT11=
EXTT12=
EXTT13=
EXTT14=
PLAYORDER=
